<svg width="14" height="14" viewBox="0 0 14 14" fill="none" xmlns="http://www.w3.org/2000/svg">
<path fill-rule="evenodd" clip-rule="evenodd" d="M7.00085 5.58514L11.5928 0.993177C11.9837 0.602291 12.6175 0.602291 13.0083 0.993177C13.3992 1.38406 13.3992 2.01781 13.0083 2.4087L8.41703 7.00001L13.0083 11.5913C13.3992 11.9822 13.3992 12.616 13.0083 13.0069C12.6175 13.3977 11.9837 13.3977 11.5928 13.0069L7.00085 8.41488L2.40888 13.0069C2.018 13.3977 1.38425 13.3977 0.99336 13.0069C0.602474 12.616 0.602474 11.9822 0.99336 11.5913L5.58467 7.00001L0.99336 2.4087C0.602474 2.01781 0.602474 1.38406 0.99336 0.993177C1.38425 0.602291 2.018 0.602291 2.40888 0.993177L7.00085 5.58514Z" fill="#8792A2"/>
</svg>
