<svg width="24" height="24" viewBox="0 0 24 24" fill="none" xmlns="http://www.w3.org/2000/svg">
<path d="M6.5125 13.5125C6.7125 13.3125 6.95417 13.2165 7.2375 13.2245C7.52084 13.2332 7.7625 13.3375 7.9625 13.5375L10.7875 16.3625L10.7875 5.21249C10.7875 4.92915 10.8835 4.69149 11.0755 4.49949C11.2668 4.30815 11.5042 4.21249 11.7875 4.21249C12.0708 4.21249 12.3085 4.30815 12.5005 4.49949C12.6918 4.69149 12.7875 4.92915 12.7875 5.21249L12.7875 16.3625L15.6375 13.5125C15.8375 13.3125 16.0752 13.2125 16.3505 13.2125C16.6252 13.2125 16.8625 13.3125 17.0625 13.5125C17.2625 13.7125 17.3625 13.9502 17.3625 14.2255C17.3625 14.5002 17.2625 14.7375 17.0625 14.9375L12.4875 19.5125C12.3875 19.6125 12.2792 19.6835 12.1625 19.7255C12.0458 19.7668 11.9208 19.7875 11.7875 19.7875C11.6542 19.7875 11.5292 19.7668 11.4125 19.7255C11.2958 19.6835 11.1875 19.6125 11.0875 19.5125L6.4875 14.9125C6.30417 14.7292 6.2125 14.5002 6.2125 14.2255C6.2125 13.9502 6.3125 13.7125 6.5125 13.5125Z" fill="#545969"/>
</svg>
