<svg width="14" height="14" viewBox="0 0 14 14" fill="none" xmlns="http://www.w3.org/2000/svg">
<path d="M7.00016 9.97916C6.88905 9.97916 6.78488 9.96166 6.68766 9.92666C6.59044 9.89222 6.50016 9.83333 6.41683 9.75L3.41683 6.74999C3.26405 6.59722 3.18766 6.40277 3.18766 6.16666C3.18766 5.93055 3.26405 5.73611 3.41683 5.58333C3.56961 5.43055 3.76738 5.35055 4.01016 5.34333C4.2535 5.33666 4.45155 5.40972 4.60433 5.56249L6.16683 7.12499V1.16666C6.16683 0.93055 6.24683 0.732495 6.40683 0.572495C6.56627 0.413051 6.76405 0.333328 7.00016 0.333328C7.23627 0.333328 7.43433 0.413051 7.59433 0.572495C7.75377 0.732495 7.8335 0.93055 7.8335 1.16666V7.12499L9.396 5.56249C9.54877 5.40972 9.74683 5.33666 9.99016 5.34333C10.2329 5.35055 10.4307 5.43055 10.5835 5.58333C10.7363 5.73611 10.8127 5.93055 10.8127 6.16666C10.8127 6.40277 10.7363 6.59722 10.5835 6.74999L7.5835 9.75C7.50016 9.83333 7.40988 9.89222 7.31266 9.92666C7.21544 9.96166 7.11127 9.97916 7.00016 9.97916ZM2.00016 13.6667C1.54183 13.6667 1.14961 13.5036 0.823496 13.1775C0.496829 12.8508 0.333496 12.4583 0.333496 12V10.3333C0.333496 10.0972 0.413218 9.89916 0.572663 9.73916C0.732663 9.57972 0.930718 9.49999 1.16683 9.49999C1.40294 9.49999 1.601 9.57972 1.761 9.73916C1.92044 9.89916 2.00016 10.0972 2.00016 10.3333V12H12.0002V10.3333C12.0002 10.0972 12.0802 9.89916 12.2402 9.73916C12.3996 9.57972 12.5974 9.49999 12.8335 9.49999C13.0696 9.49999 13.2674 9.57972 13.4268 9.73916C13.5868 9.89916 13.6668 10.0972 13.6668 10.3333V12C13.6668 12.4583 13.5038 12.8508 13.1777 13.1775C12.851 13.5036 12.4585 13.6667 12.0002 13.6667H2.00016Z" fill="#545969"/>
</svg>
