<svg width="14" height="14" viewBox="0 0 14 14" fill="none" xmlns="http://www.w3.org/2000/svg">
<path d="M1.33333 13.8C0.966667 13.8 0.652667 13.6693 0.391333 13.408C0.130444 13.1471 0 12.8333 0 12.4667V3.13334C0 2.76667 0.130444 2.45267 0.391333 2.19134C0.652667 1.93045 0.966667 1.8 1.33333 1.8H7.28333L5.95 3.13334H1.33333V12.4667H10.6667V7.83334L12 6.5V12.4667C12 12.8333 11.8696 13.1471 11.6087 13.408C11.3473 13.6693 11.0333 13.8 10.6667 13.8H1.33333ZM8.78333 2.18334L9.73333 3.11667L5.33333 7.51667V8.46667H6.26667L10.6833 4.05L11.6333 4.98334L7.21667 9.4C7.09444 9.52222 6.95289 9.61956 6.792 9.692C6.63067 9.764 6.46111 9.8 6.28333 9.8H4.66667C4.47778 9.8 4.31956 9.73622 4.192 9.60867C4.064 9.48067 4 9.32222 4 9.13334V7.51667C4 7.33889 4.03333 7.16934 4.1 7.008C4.16667 6.84711 4.26111 6.70556 4.38333 6.58334L8.78333 2.18334ZM11.6333 4.98334L8.78333 2.18334L10.45 0.516669C10.7167 0.250002 11.0362 0.116669 11.4087 0.116669C11.7807 0.116669 12.0944 0.250002 12.35 0.516669L13.2833 1.46667C13.5389 1.72222 13.6667 2.03334 13.6667 2.4C13.6667 2.76667 13.5389 3.07778 13.2833 3.33334L11.6333 4.98334Z" fill="#404452"/>
</svg>
