<svg width="16" height="10" viewBox="0 0 16 10" fill="none" xmlns="http://www.w3.org/2000/svg">
<path d="M8.00033 1.33333C9.22615 1.32926 10.4282 1.67119 11.4684 2.31982C12.5086 2.96845 13.3446 3.89744 13.8803 5C12.7803 7.24667 10.5337 8.66667 8.00033 8.66667C5.46699 8.66667 3.22033 7.24667 2.12033 5C2.65607 3.89744 3.49208 2.96845 4.53224 2.31982C5.57241 1.67119 6.7745 1.32926 8.00033 1.33333ZM8.00033 0C4.66699 0 1.82033 2.07333 0.666992 5C1.82033 7.92667 4.66699 10 8.00033 10C11.3337 10 14.1803 7.92667 15.3337 5C14.1803 2.07333 11.3337 0 8.00033 0ZM8.00033 3.33333C8.44235 3.33333 8.86628 3.50893 9.17884 3.82149C9.4914 4.13405 9.66699 4.55797 9.66699 5C9.66699 5.44203 9.4914 5.86595 9.17884 6.17851C8.86628 6.49107 8.44235 6.66667 8.00033 6.66667C7.5583 6.66667 7.13437 6.49107 6.82181 6.17851C6.50925 5.86595 6.33366 5.44203 6.33366 5C6.33366 4.55797 6.50925 4.13405 6.82181 3.82149C7.13437 3.50893 7.5583 3.33333 8.00033 3.33333ZM8.00033 2C6.34699 2 5.00033 3.34667 5.00033 5C5.00033 6.65333 6.34699 8 8.00033 8C9.65366 8 11.0003 6.65333 11.0003 5C11.0003 3.34667 9.65366 2 8.00033 2Z" fill="#545969"/>
</svg>
