<svg width="18" height="18" viewBox="0 0 18 18" fill="none" xmlns="http://www.w3.org/2000/svg">
<path d="M8.95866 14C9.25033 14 9.49699 13.8992 9.69866 13.6975C9.89977 13.4964 10.0003 13.25 10.0003 12.9584C10.0003 12.6667 9.89977 12.4203 9.69866 12.2192C9.49699 12.0175 9.25033 11.9167 8.95866 11.9167C8.66699 11.9167 8.42033 12.0175 8.21866 12.2192C8.01755 12.4203 7.91699 12.6667 7.91699 12.9584C7.91699 13.25 8.01755 13.4964 8.21866 13.6975C8.42033 13.8992 8.66699 14 8.95866 14ZM9.08366 5.41669C9.47255 5.41669 9.78505 5.52419 10.0212 5.73919C10.2573 5.95474 10.3753 6.23613 10.3753 6.58335C10.3753 6.81947 10.2956 7.05891 10.1362 7.30169C9.97616 7.54502 9.75033 7.79863 9.45866 8.06252C9.04199 8.42363 8.73644 8.77085 8.54199 9.10419C8.34755 9.43752 8.25033 9.77085 8.25033 10.1042C8.25033 10.2986 8.32338 10.4617 8.46949 10.5934C8.61505 10.7256 8.78505 10.7917 8.97949 10.7917C9.17394 10.7917 9.34755 10.7222 9.50033 10.5834C9.6531 10.4445 9.75033 10.2709 9.79199 10.0625C9.83366 9.82641 9.92755 9.6078 10.0737 9.40669C10.2192 9.20502 10.4587 8.94447 10.792 8.62502C11.2225 8.22224 11.5248 7.85419 11.6987 7.52085C11.872 7.18752 11.9587 6.81946 11.9587 6.41669C11.9587 5.70835 11.6914 5.12835 11.157 4.67669C10.622 4.22558 9.93088 4.00002 9.08366 4.00002C8.50033 4.00002 7.9831 4.11113 7.53199 4.33335C7.08033 4.55558 6.72949 4.89585 6.47949 5.35419C6.38227 5.53474 6.34755 5.71169 6.37533 5.88502C6.4031 6.05891 6.50033 6.20141 6.66699 6.31252C6.84755 6.42363 7.0456 6.45835 7.26116 6.41669C7.47616 6.37502 7.6531 6.25697 7.79199 6.06252C7.94477 5.85419 8.12894 5.69447 8.34449 5.58335C8.55949 5.47224 8.80588 5.41669 9.08366 5.41669ZM9.00033 17.3334C7.86144 17.3334 6.78505 17.1145 5.77116 16.6767C4.75727 16.2395 3.87199 15.6459 3.11533 14.8959C2.3581 14.1459 1.76088 13.2639 1.32366 12.25C0.885881 11.2361 0.666992 10.1528 0.666992 9.00002C0.666992 7.84724 0.885881 6.76391 1.32366 5.75002C1.76088 4.73613 2.3581 3.85419 3.11533 3.10419C3.87199 2.35419 4.75727 1.7603 5.77116 1.32252C6.78505 0.885298 7.86144 0.666687 9.00033 0.666687C10.167 0.666687 11.2573 0.885298 12.2712 1.32252C13.285 1.7603 14.167 2.35419 14.917 3.10419C15.667 3.85419 16.2573 4.73613 16.6878 5.75002C17.1184 6.76391 17.3337 7.84724 17.3337 9.00002C17.3337 10.1528 17.1184 11.2361 16.6878 12.25C16.2573 13.2639 15.667 14.1459 14.917 14.8959C14.167 15.6459 13.285 16.2395 12.2712 16.6767C11.2573 17.1145 10.167 17.3334 9.00033 17.3334Z" fill="#545969"/>
</svg>
