<svg width="20" height="6" viewBox="0 0 20 6" fill="none" xmlns="http://www.w3.org/2000/svg">
<path d="M2.5 5.5C3.88071 5.5 5 4.38071 5 3C5 1.61929 3.88071 0.5 2.5 0.5C1.11929 0.5 0 1.61929 0 3C0 4.38071 1.11929 5.5 2.5 5.5Z" fill="#545969"/>
<path d="M10 5.5C11.3807 5.5 12.5 4.38071 12.5 3C12.5 1.61929 11.3807 0.5 10 0.5C8.61929 0.5 7.5 1.61929 7.5 3C7.5 4.38071 8.61929 5.5 10 5.5Z" fill="#545969"/>
<path d="M20 3C20 4.38071 18.8807 5.5 17.5 5.5C16.1193 5.5 15 4.38071 15 3C15 1.61929 16.1193 0.5 17.5 0.5C18.8807 0.5 20 1.61929 20 3Z" fill="#545969"/>
</svg>
